<svg xmlns="http://www.w3.org/2000/svg" width="47" height="47" viewBox="0 0 47 47"><defs><style>.a{fill:#3e3e3e;}</style></defs><path class="a" d="M91.049,63.33A23.5,23.5,0,1,0,53.406,82.1h0a23.5,23.5,0,0,0,26.371,1.3c.145-.089.29-.179.433-.271s.258-.169.386-.254l.163-.11.077-.052c.078-.054.153-.112.231-.166.21-.148.42-.3.625-.451h0A23.462,23.462,0,0,0,91.049,63.33ZM55.587,81.183a12.221,12.221,0,0,1,23.924,0,21.441,21.441,0,0,1-23.924,0ZM60.049,60.33a7.5,7.5,0,1,1,7.5,7.5A7.508,7.508,0,0,1,60.049,60.33ZM81.256,79.879A14.243,14.243,0,0,0,69.538,69.617a9.5,9.5,0,1,0-3.978,0A14.24,14.24,0,0,0,53.842,79.879a21.5,21.5,0,1,1,27.414,0Z" transform="translate(-44.049 -39.83)"/></svg>