<svg xmlns="http://www.w3.org/2000/svg" xmlns:xlink="http://www.w3.org/1999/xlink" width="375" height="667" viewBox="0 0 375 667"><defs><style>.a{fill:#fff;}.b{clip-path:url(#a);}.c{fill:url(#b);}.d{fill:url(#c);}.e{opacity:0.7;fill:url(#d);}</style><clipPath id="a"><rect class="a" width="375" height="667"/></clipPath><linearGradient id="b" x1="0.102" y1="0.024" x2="0.828" y2="0.895" gradientUnits="objectBoundingBox"><stop offset="0" stop-color="#ffa571"/><stop offset="1" stop-color="#ff704f"/></linearGradient><linearGradient id="c" x1="0.5" x2="0.5" y2="1" gradientUnits="objectBoundingBox"><stop offset="0" stop-color="#ffa571"/><stop offset="1" stop-color="#ffa571"/></linearGradient><linearGradient id="d" y1="1" y2="0" xlink:href="#c"/></defs><g class="b"><g transform="translate(123.314 228.027)"><path class="c" d="M-56.578,2374.164s360.355,152.931,494.209,169.682,247.73,25.176,559.055-169.682,527.162-168.756,527.162-168.756L1508.3,1528.334-32.6,1515.27Z" transform="translate(-507 -2216)"/><path class="d" d="M3065.642,2155.453s-1021.617-4.074-1650.788,97.013S855.1,2418.033,455.649,2437.735s-590.237-108.9-590.237-108.9v302.847s682.294-67.84,1302.769,0,956.506,142.853,1396.856-61.256S3065.642,2155.453,3065.642,2155.453Z" transform="translate(-529.554 -2153.657)"/><path class="e" d="M-134.588,2630.74s1021.617,43.834,1650.788-51.285,559.751-155.791,959.205-174.329S3065.642,2507.6,3065.642,2507.6V2222.631s-682.294,63.834-1302.769,0S806.367,2088.213,366.017,2280.27-134.588,2630.74-134.588,2630.74Z" transform="translate(-1574.553 -1951.657)"/></g></g></svg>