<svg xmlns="http://www.w3.org/2000/svg" xmlns:xlink="http://www.w3.org/1999/xlink" width="375" height="667" viewBox="0 0 375 667"><defs><style>.a{fill:#fff;}.b{clip-path:url(#a);}.c{fill:url(#b);}.d{opacity:0.7;fill:url(#c);}</style><clipPath id="a"><rect class="a" width="375" height="667"/></clipPath><linearGradient id="b" x1="0.102" y1="0.024" x2="0.828" y2="0.895" gradientUnits="objectBoundingBox"><stop offset="0" stop-color="#ffa571"/><stop offset="1" stop-color="#ff704f"/></linearGradient><linearGradient id="c" x1="0.5" x2="0.5" y2="1" gradientUnits="objectBoundingBox"><stop offset="0" stop-color="#ffa571"/><stop offset="1" stop-color="#ffa571"/></linearGradient></defs><g class="b"><g transform="translate(183.314 251.027)"><path class="c" d="M-56.578,2374.164s360.355,152.931,494.209,169.682,247.73,25.176,559.055-169.682,527.162-168.756,527.162-168.756L1508.3,1528.334-32.6,1515.27Z" transform="translate(-507 -2216)"/><path class="d" d="M3065.642,2155.451s-1021.617-3.834-1650.788,91.285S855.1,2402.526,455.649,2421.065-134.588,2318.6-134.588,2318.6v284.965s682.294-63.834,1302.769,0,956.506,134.418,1396.856-57.639S3065.642,2155.451,3065.642,2155.451Z" transform="translate(-529.554 -2145.657)"/></g></g></svg>