<svg xmlns="http://www.w3.org/2000/svg" width="135" height="134.999" viewBox="0 0 135 134.999">
  <g id="Gruppe_318" data-name="Gruppe 318" transform="translate(-27.159 -27.16)">
    <g id="Gruppe_159" data-name="Gruppe 159" transform="translate(27.159 27.16)">
      <path id="Pfad_2056" data-name="Pfad 2056" d="M176.688,31.238a3.122,3.122,0,0,0,.268.51,3.171,3.171,0,0,0,.369.448,2.836,2.836,0,0,0,.448.366,2.984,2.984,0,0,0,.508.271,3.078,3.078,0,0,0,.555.168,2.832,2.832,0,0,0,1.15,0,2.972,2.972,0,0,0,.552-.168,2.911,2.911,0,0,0,.51-.271,2.823,2.823,0,0,0,.448-.366,2.944,2.944,0,0,0,.366-.448,3.114,3.114,0,0,0,.271-.51,2.79,2.79,0,0,0,.168-.552,2.847,2.847,0,0,0,0-1.153,2.77,2.77,0,0,0-.168-.552,3.114,3.114,0,0,0-.271-.51,2.944,2.944,0,0,0-.366-.448,2.823,2.823,0,0,0-.448-.366,2.911,2.911,0,0,0-.51-.271,2.979,2.979,0,0,0-.552-.168,2.9,2.9,0,0,0-1.15,0,3.078,3.078,0,0,0-.555.168,3,3,0,0,0-.508.271,2.836,2.836,0,0,0-.448.366,3.171,3.171,0,0,0-.369.448,3.121,3.121,0,0,0-.268.51,2.77,2.77,0,0,0-.168.552,2.848,2.848,0,0,0,0,1.153A2.77,2.77,0,0,0,176.688,31.238Z" transform="translate(-132.422 -27.16)" fill="#f8f5f5"/>
      <path id="Pfad_2057" data-name="Pfad 2057" d="M145.679,27.172l0-.012H85.946a2.95,2.95,0,0,0,0,5.9h54.292l5.9.043A11.077,11.077,0,0,1,156.26,44.123V145.2A11.076,11.076,0,0,1,145.2,156.261H44.121c-.172,0-.343-.005-.514-.013l-.158-.009q-.182-.011-.362-.028l-.168-.017q-.194-.021-.386-.049l-.119-.017q-.245-.038-.486-.087l-.14-.031q-.174-.038-.347-.08l-.175-.045c-.107-.029-.213-.059-.319-.091l-.163-.049c-.15-.048-.3-.1-.447-.152l-.113-.044c-.113-.043-.226-.087-.338-.133l-.182-.078q-.133-.058-.263-.119c-.063-.029-.126-.059-.188-.09-.09-.044-.178-.09-.267-.137-.056-.03-.114-.058-.17-.089-.126-.069-.251-.142-.374-.216-.066-.04-.131-.081-.2-.122s-.137-.086-.2-.131-.138-.092-.206-.139-.121-.086-.181-.129-.139-.1-.207-.151c-.052-.04-.1-.081-.155-.122q-.2-.156-.388-.319c-.045-.038-.089-.076-.133-.116-.073-.064-.144-.13-.214-.2l-.121-.115c-.073-.07-.145-.141-.215-.213-.027-.027-.053-.055-.079-.083q-.25-.26-.483-.536l-.006-.007c-.073-.087-.144-.176-.214-.265l-.072-.091q-.1-.134-.2-.27l-.052-.072a11.139,11.139,0,0,1-.613-.958l-.027-.048q-.09-.159-.174-.322l-.035-.069a11.092,11.092,0,0,1-.49-1.1c-.054-.142-.1-.285-.152-.429l-.017-.049c-.043-.132-.083-.265-.122-.4-.01-.033-.019-.066-.028-.1q-.051-.184-.1-.37c-.012-.047-.022-.095-.033-.143q-.039-.172-.073-.346c-.012-.06-.022-.121-.032-.181-.019-.107-.037-.214-.052-.322-.011-.074-.019-.148-.028-.223-.012-.1-.025-.2-.034-.294s-.014-.182-.021-.273-.014-.17-.018-.256c-.006-.135-.009-.27-.01-.406,0-.042,0-.085,0-.127v-3.214h0V44.123A11.076,11.076,0,0,1,44.122,33.059H62.349a2.95,2.95,0,0,0,0-5.9H44.122A16.982,16.982,0,0,0,27.159,44.123V145.2a16.914,16.914,0,0,0,.639,4.6h0a16.841,16.841,0,0,0,1.645,3.885l.015.027q.167.287.345.567l.032.05q.179.279.368.552l.006.009a17.057,17.057,0,0,0,1.718,2.086l.072.075c.13.133.263.263.4.391l.141.134q.19.178.386.351c.057.05.114.1.172.15.128.11.257.219.388.324.061.05.123.1.185.146.133.1.266.209.4.31.046.034.094.067.141.1q.411.3.839.569c.069.044.137.09.208.133.119.073.241.143.362.213.1.058.2.117.3.173s.233.126.351.188.221.115.333.171.229.112.345.166.241.111.362.164.223.1.336.145c.135.056.27.109.407.161.1.04.2.081.308.118.191.069.383.133.577.2l.236.075c.216.066.434.129.654.186.091.024.184.045.277.067.163.04.327.079.492.114.1.022.206.041.31.061.158.03.317.059.476.085l.317.049c.163.023.326.044.49.062.1.012.206.024.309.034.179.017.36.03.54.041.089.006.177.013.266.017.269.013.54.021.813.021H145.2A16.983,16.983,0,0,0,162.159,145.2V44.123A16.98,16.98,0,0,0,145.679,27.172Z" transform="translate(-27.159 -27.16)" fill="#f8f5f5"/>
    </g>
    <g id="Gruppe_315" data-name="Gruppe 315" transform="translate(-89.554 -324.365)">
      <g id="Gruppe_315-2" data-name="Gruppe 315" transform="translate(149.329 389.775)">
        <path id="Pfad_2154" data-name="Pfad 2154" d="M215.753,400.592c-3.252-6.276-8.4-10.1-15.563-10.744-5-.452-9.187,1.5-12.661,4.978-1.429,1.429-2.606,3.109-3.829,4.591-1.209-1.471-2.366-3.137-3.78-4.547-3.878-3.868-8.533-5.784-14.063-4.872-11.26,1.857-18.795,13.571-15.909,24.636a32.056,32.056,0,0,0,7.147,12.7c7.291,8.519,16.239,14.992,25.8,20.7a1.526,1.526,0,0,0,1.711-.042,129.8,129.8,0,0,0,11.664-7.745v0a1.3,1.3,0,1,0-1.669-1.984c-3.269,2.447-6.66,4.726-10.144,6.875a1.215,1.215,0,0,1-1.492,0c-7.928-4.921-15.445-10.368-21.89-17.172-3.427-3.618-6.452-7.532-8.16-12.292-3.461-9.65,2.38-20.611,12.212-22.937,5.247-1.241,9.587.476,13.277,4.19a20.953,20.953,0,0,1,3.954,5.73c.291.6.622,1.133,1.386,1.113.721-.019,1.032-.536,1.31-1.109a19.774,19.774,0,0,1,6.042-7.562c5.046-3.679,10.363-3.649,15.583-.6a17.373,17.373,0,0,1,8.851,14.767,20.923,20.923,0,0,1-3.592,11.585,49.47,49.47,0,0,1-7.155,8.744l.006.006a1.277,1.277,0,0,0,1.97,1.625,47.143,47.143,0,0,0,8.673-11.359C218.77,413.492,219.08,407.012,215.753,400.592Z" transform="translate(-149.329 -389.775)" fill="#f8f5f5" stroke="#f8f5f5" stroke-width="2"/>
        <path id="Pfad_2155" data-name="Pfad 2155" d="M273.028,571a11.2,11.2,0,0,0,7.345-2.419,21.906,21.906,0,0,0,2.942-3.288,1.168,1.168,0,0,0-.367-1.728,1.261,1.261,0,0,0-1.746.38c-.111.147-.2.313-.3.464a9.092,9.092,0,0,1-15.11-.038,3.019,3.019,0,0,0-.859-.889,1.083,1.083,0,0,0-1.424.322,1.236,1.236,0,0,0-.052,1.609A11.494,11.494,0,0,0,273.028,571Z" transform="translate(-238.988 -526.456)" fill="#f8f5f5" stroke="#f8f5f5" stroke-width="2"/>
        <path id="Pfad_2156" data-name="Pfad 2156" d="M241.153,489.9c.044.066.079.139.125.2a1.252,1.252,0,0,0,1.674.434,1.228,1.228,0,0,0,.5-1.707,5.839,5.839,0,0,0-4.7-3.206,5.915,5.915,0,0,0-5.159,3.289,1.306,1.306,0,0,0,.027,1.04c.225.329.7.727,1.027.69a1.976,1.976,0,0,0,1.252-.763C237.431,487.659,239.67,487.646,241.153,489.9Z" transform="translate(-215.614 -465.255)" fill="#f8f5f5" stroke="#f8f5f5" stroke-width="2"/>
        <path id="Pfad_2157" data-name="Pfad 2157" d="M346.215,485.519a5.963,5.963,0,0,0-4.8,2.962,1.3,1.3,0,0,0,.308,1.946c.664.405,1.332.181,1.865-.625,1.484-2.246,3.747-2.233,5.234.03.044.066.078.139.125.2a1.251,1.251,0,0,0,1.678.421,1.226,1.226,0,0,0,.491-1.712A5.942,5.942,0,0,0,346.215,485.519Z" transform="translate(-300.369 -465.175)" fill="#f8f5f5" stroke="#f8f5f5" stroke-width="2"/>
      </g>
      <circle id="Ellipse_32" data-name="Ellipse 32" cx="1.277" cy="1.277" r="1.277" transform="translate(199.653 433.901)" fill="#f8f5f5" stroke="#f8f5f5" stroke-width="2"/>
    </g>
  </g>
</svg>
