<svg xmlns="http://www.w3.org/2000/svg" width="135" height="134.999" viewBox="0 0 135 134.999"><defs><style>.a{fill:#f8f5f5;}</style></defs><g transform="translate(-27.159 -27.16)"><g transform="translate(27.159 27.16)"><path class="a" d="M176.688,31.238a3.122,3.122,0,0,0,.268.51,3.171,3.171,0,0,0,.369.448,2.836,2.836,0,0,0,.448.366,2.984,2.984,0,0,0,.508.271,3.078,3.078,0,0,0,.555.168,2.832,2.832,0,0,0,1.15,0,2.972,2.972,0,0,0,.552-.168,2.911,2.911,0,0,0,.51-.271,2.823,2.823,0,0,0,.448-.366,2.944,2.944,0,0,0,.366-.448,3.114,3.114,0,0,0,.271-.51,2.79,2.79,0,0,0,.168-.552,2.847,2.847,0,0,0,0-1.153,2.77,2.77,0,0,0-.168-.552,3.114,3.114,0,0,0-.271-.51,2.944,2.944,0,0,0-.366-.448,2.823,2.823,0,0,0-.448-.366,2.911,2.911,0,0,0-.51-.271,2.979,2.979,0,0,0-.552-.168,2.9,2.9,0,0,0-1.15,0,3.078,3.078,0,0,0-.555.168,3,3,0,0,0-.508.271,2.836,2.836,0,0,0-.448.366,3.171,3.171,0,0,0-.369.448,3.121,3.121,0,0,0-.268.51,2.77,2.77,0,0,0-.168.552,2.848,2.848,0,0,0,0,1.153A2.77,2.77,0,0,0,176.688,31.238Z" transform="translate(-132.422 -27.16)"/><path class="a" d="M145.679,27.172l0-.012H85.946a2.95,2.95,0,0,0,0,5.9h54.292l5.9.043A11.077,11.077,0,0,1,156.26,44.123V145.2A11.076,11.076,0,0,1,145.2,156.261H44.121c-.172,0-.343-.005-.514-.013l-.158-.009q-.182-.011-.362-.028l-.168-.017q-.194-.021-.386-.049l-.119-.017q-.245-.038-.486-.087l-.14-.031q-.174-.038-.347-.08l-.175-.045c-.107-.029-.213-.059-.319-.091l-.163-.049c-.15-.048-.3-.1-.447-.152l-.113-.044c-.113-.043-.226-.087-.338-.133l-.182-.078q-.133-.058-.263-.119c-.063-.029-.126-.059-.188-.09-.09-.044-.178-.09-.267-.137-.056-.03-.114-.058-.17-.089-.126-.069-.251-.142-.374-.216-.066-.04-.131-.081-.2-.122s-.137-.086-.2-.131-.138-.092-.206-.139-.121-.086-.181-.129-.139-.1-.207-.151c-.052-.04-.1-.081-.155-.122q-.2-.156-.388-.319c-.045-.038-.089-.076-.133-.116-.073-.064-.144-.13-.214-.2l-.121-.115c-.073-.07-.145-.141-.215-.213-.027-.027-.053-.055-.079-.083q-.25-.26-.483-.536l-.006-.007c-.073-.087-.144-.176-.214-.265l-.072-.091q-.1-.134-.2-.27l-.052-.072a11.139,11.139,0,0,1-.613-.958l-.027-.048q-.09-.159-.174-.322l-.035-.069a11.092,11.092,0,0,1-.49-1.1c-.054-.142-.1-.285-.152-.429l-.017-.049c-.043-.132-.083-.265-.122-.4-.01-.033-.019-.066-.028-.1q-.051-.184-.1-.37c-.012-.047-.022-.095-.033-.143q-.039-.172-.073-.346c-.012-.06-.022-.121-.032-.181-.019-.107-.037-.214-.052-.322-.011-.074-.019-.148-.028-.223-.012-.1-.025-.2-.034-.294s-.014-.182-.021-.273-.014-.17-.018-.256c-.006-.135-.009-.27-.01-.406,0-.042,0-.085,0-.127v-3.214h0V44.123A11.076,11.076,0,0,1,44.122,33.059H62.349a2.95,2.95,0,0,0,0-5.9H44.122A16.982,16.982,0,0,0,27.159,44.123V145.2a16.914,16.914,0,0,0,.639,4.6h0a16.841,16.841,0,0,0,1.645,3.885l.015.027q.167.287.345.567l.032.05q.179.279.368.552l.006.009a17.057,17.057,0,0,0,1.718,2.086l.072.075c.13.133.263.263.4.391l.141.134q.19.178.386.351c.057.05.114.1.172.15.128.11.257.219.388.324.061.05.123.1.185.146.133.1.266.209.4.31.046.034.094.067.141.1q.411.3.839.569c.069.044.137.09.208.133.119.073.241.143.362.213.1.058.2.117.3.173s.233.126.351.188.221.115.333.171.229.112.345.166.241.111.362.164.223.1.336.145c.135.056.27.109.407.161.1.04.2.081.308.118.191.069.383.133.577.2l.236.075c.216.066.434.129.654.186.091.024.184.045.277.067.163.04.327.079.492.114.1.022.206.041.31.061.158.03.317.059.476.085l.317.049c.163.023.326.044.49.062.1.012.206.024.309.034.179.017.36.03.54.041.089.006.177.013.266.017.269.013.54.021.813.021H145.2A16.983,16.983,0,0,0,162.159,145.2V44.123A16.98,16.98,0,0,0,145.679,27.172Z" transform="translate(-27.159 -27.16)"/></g><g transform="translate(83.191 75.33)"><path class="a" d="M240.827,305.606a3.121,3.121,0,0,0,.268.51,3.171,3.171,0,0,0,.369.448,2.824,2.824,0,0,0,.448.366,2.992,2.992,0,0,0,.507.271,3.078,3.078,0,0,0,.555.168,2.834,2.834,0,0,0,1.15,0,2.979,2.979,0,0,0,.552-.168,2.912,2.912,0,0,0,.51-.271,2.824,2.824,0,0,0,.448-.366,2.961,2.961,0,0,0,.366-.448,3.135,3.135,0,0,0,.271-.51,2.769,2.769,0,0,0,.168-.552,2.848,2.848,0,0,0,0-1.153,2.769,2.769,0,0,0-.168-.552,3.134,3.134,0,0,0-.271-.51,2.961,2.961,0,0,0-.366-.448,2.824,2.824,0,0,0-.448-.366,2.91,2.91,0,0,0-.51-.271,2.981,2.981,0,0,0-.552-.168,2.906,2.906,0,0,0-1.15,0,3.08,3.08,0,0,0-.555.168,2.99,2.99,0,0,0-.507.271,2.824,2.824,0,0,0-.448.366,3.171,3.171,0,0,0-.369.448,3.12,3.12,0,0,0-.268.51,2.771,2.771,0,0,0-.168.552,2.848,2.848,0,0,0,0,1.153A2.771,2.771,0,0,0,240.827,305.606Z" transform="translate(-233.674 -268.769)"/><g transform="translate(0 0)"><path class="a" d="M225.111,210.589a2.371,2.371,0,0,1,1.779-.743,9.212,9.212,0,0,0,5.814-1.991,7.341,7.341,0,0,0,.186-10.406,7.072,7.072,0,0,0-5.1-1.991,7.757,7.757,0,0,0-3.265.717,8.825,8.825,0,0,0-2.734,1.938,3.2,3.2,0,0,1-2.124.956,2.254,2.254,0,0,1-1.38-.478,2.275,2.275,0,0,1-.372-3.717,12.677,12.677,0,0,1,4.38-3.239,13.154,13.154,0,0,1,5.5-1.168,12.582,12.582,0,0,1,6.185,1.54,11.695,11.695,0,0,1,6.079,10.459,11.22,11.22,0,0,1-1.407,5.654A11.068,11.068,0,0,1,234.8,212.1a12.85,12.85,0,0,1-5.522,1.832c-.036,0-.045.009-.027.026s.061.009.133-.026v3.5a2.5,2.5,0,0,1-.717,1.805,2.369,2.369,0,0,1-1.779.743,2.432,2.432,0,0,1-1.832-.743,2.324,2.324,0,0,1-.664-1.805v-4.991A2.572,2.572,0,0,1,225.111,210.589Z" transform="translate(-217.12 -190.467)"/></g></g></g></svg>