<svg width="30" height="14" viewBox="0 0 30 14" fill="none" xmlns="http://www.w3.org/2000/svg">
<g id="Ebene_1" clip-path="url(#clip0_350_5915)">
<path id="Vector" d="M14.21 5.20996C13.86 5.20996 13.56 5.33996 13.32 5.60996C13.08 5.87996 12.95 6.18996 12.95 6.55996C12.95 6.92996 13.07 7.24996 13.32 7.50996C13.57 7.77996 13.86 7.90996 14.21 7.90996C14.56 7.90996 14.85 7.77996 15.1 7.50996C15.34 7.23996 15.47 6.91996 15.47 6.55996C15.47 6.19996 15.35 5.87996 15.11 5.60996C14.87 5.33996 14.57 5.20996 14.22 5.20996H14.21Z" fill="#C263E3"/>
<path id="Vector_2" d="M18.2001 5.30005H17.8601V7.93005H18.2001C18.5601 7.93005 18.8701 7.80005 19.1301 7.54005C19.3901 7.28005 19.5101 6.98005 19.5101 6.61005C19.5101 6.24005 19.3801 5.94005 19.1301 5.68005C18.8801 5.42005 18.5701 5.30005 18.2001 5.30005Z" fill="#C263E3"/>
<path id="Vector_3" d="M29.36 4.21V3C29.36 1.34 28.02 0 26.36 0H3C1.34 0 0 1.34 0 3V4.21C1.35 4.21 2.45 5.31 2.45 6.66C2.45 8.01 1.35 9.11 0 9.11V10.32C0 11.98 1.34 13.32 3 13.32H26.36C28.02 13.32 29.36 11.98 29.36 10.32V9.11C28.01 9.11 26.91 8.01 26.91 6.66C26.91 5.31 28.01 4.21 29.36 4.21ZM6.06 11.5C6.06 11.71 5.89 11.88 5.68 11.88C5.47 11.88 5.3 11.71 5.3 11.5V1.83C5.3 1.62 5.47 1.45 5.68 1.45C5.89 1.45 6.06 1.62 6.06 1.83V11.5ZM9.05 7.53C9.32 7.79 9.64 7.92 10 7.92C10.36 7.92 10.67 7.82 10.92 7.62C10.98 7.57 11.06 7.55 11.15 7.57C11.24 7.58 11.31 7.62 11.36 7.69C11.41 7.76 11.43 7.84 11.42 7.92C11.41 8.01 11.37 8.07 11.3 8.13C10.93 8.42 10.51 8.56 10.03 8.56C9.48 8.56 9.01 8.37 8.61 7.98C8.21 7.59 8.01 7.13 8.01 6.58C8.01 6.04 8.21 5.57 8.61 5.19C9.01 4.8 9.48 4.61 10.03 4.6C10.51 4.6 10.93 4.74 11.3 5.03C11.37 5.08 11.4 5.15 11.42 5.24C11.43 5.32 11.41 5.4 11.36 5.47C11.31 5.54 11.24 5.58 11.15 5.59C11.06 5.6 10.99 5.59 10.92 5.53C10.67 5.33 10.37 5.23 10.01 5.23C9.65 5.23 9.33 5.36 9.05 5.63C8.78 5.9 8.65 6.23 8.65 6.6C8.65 6.97 8.79 7.29 9.06 7.55L9.05 7.53ZM15.53 7.96C15.36 8.14 15.17 8.29 14.94 8.39C14.71 8.49 14.47 8.55 14.22 8.55C13.69 8.55 13.24 8.36 12.88 7.97C12.52 7.58 12.33 7.12 12.33 6.57C12.33 6.02 12.51 5.56 12.88 5.17C13.25 4.78 13.69 4.59 14.21 4.59C14.73 4.59 15.18 4.79 15.54 5.18C15.9 5.57 16.09 6.04 16.09 6.57C16.09 7.1 15.9 7.57 15.53 7.96ZM19.55 7.98C19.18 8.36 18.72 8.54 18.19 8.54H17.54C17.46 8.54 17.38 8.51 17.33 8.45C17.27 8.39 17.24 8.32 17.24 8.24V5C17.24 4.92 17.27 4.84 17.33 4.79C17.39 4.74 17.46 4.7 17.54 4.7H18.19C18.72 4.7 19.17 4.89 19.55 5.26C19.93 5.63 20.11 6.09 20.11 6.62C20.11 7.15 19.92 7.61 19.55 7.98ZM23.16 6.31C23.24 6.31 23.31 6.34 23.37 6.4C23.43 6.46 23.46 6.53 23.46 6.61C23.46 6.69 23.43 6.76 23.37 6.82C23.31 6.88 23.24 6.91 23.16 6.91H21.88V7.92H23.37C23.45 7.92 23.52 7.95 23.58 8.01C23.64 8.07 23.67 8.14 23.67 8.22C23.67 8.3 23.64 8.37 23.58 8.43C23.52 8.49 23.45 8.52 23.37 8.52H21.58C21.5 8.52 21.42 8.49 21.37 8.43C21.31 8.37 21.28 8.3 21.28 8.22V4.98C21.28 4.9 21.31 4.82 21.37 4.77C21.43 4.72 21.5 4.68 21.58 4.68H23.38C23.46 4.68 23.53 4.71 23.59 4.77C23.65 4.83 23.68 4.9 23.68 4.98C23.68 5.06 23.65 5.14 23.59 5.2C23.53 5.26 23.46 5.29 23.38 5.29H21.89V6.3H23.17L23.16 6.31Z" fill="#C263E3"/>
</g>
<defs>
<clipPath id="clip0_350_5915">
<rect width="29.36" height="13.32" fill="white"/>
</clipPath>
</defs>
</svg>
