<svg xmlns="http://www.w3.org/2000/svg" width="40" height="40" viewBox="0 0 40 40"><defs><style>.a,.b,.c,.e{fill:none;}.a,.c{stroke:#ffa571;stroke-width:2px;}.c{stroke-linecap:round;}.d,.f{stroke:none;}.f{fill:#ffa571;}</style></defs><g transform="translate(-168 -155)"><g transform="translate(68 -2)"><g class="a" transform="translate(100 157)"><circle class="d" cx="20" cy="20" r="20"/><circle class="e" cx="20" cy="20" r="19"/></g><g class="b" transform="translate(-366 2602)"><path class="d" d="M473.121-2409.7a12.988,12.988,0,0,1,13.025-10.922,13,13,0,0,1,12.992,10.7A19.924,19.924,0,0,1,486-2405,19.92,19.92,0,0,1,473.121-2409.7Z"/><path class="f" d="M 486 -2406.999755859375 C 489.9622497558594 -2406.999755859375 493.7990112304688 -2408.30419921875 496.9261169433594 -2410.6943359375 C 496.3609619140625 -2412.740478515625 495.1573791503906 -2414.596923828125 493.4646301269531 -2416.005126953125 C 491.4375915527344 -2417.691650390625 488.83837890625 -2418.620361328125 486.1458129882812 -2418.620361328125 C 483.4189453125 -2418.620361328125 480.7947387695312 -2417.67041015625 478.756591796875 -2415.945556640625 C 477.048095703125 -2414.5 475.8522033691406 -2412.599853515625 475.3174743652344 -2410.5107421875 C 476.6692504882812 -2409.511474609375 478.1466369628906 -2408.710693359375 479.7230224609375 -2408.1240234375 C 481.7276611328125 -2407.3779296875 483.8395385742188 -2406.999755859375 486 -2406.999755859375 M 486 -2404.999755859375 C 481.0940246582031 -2404.999755859375 476.6002807617188 -2406.7666015625 473.1208190917969 -2409.6982421875 C 473.9921264648438 -2415.866455078125 479.4912719726562 -2420.620361328125 486.1458129882812 -2420.620361328125 C 492.720947265625 -2420.620361328125 498.1676940917969 -2415.97998046875 499.1382446289062 -2409.920166015625 C 495.6241455078125 -2406.85595703125 491.0286865234375 -2404.999755859375 486 -2404.999755859375 Z"/></g><g class="a" transform="translate(112 166.288)"><circle class="d" cx="8.5" cy="8.5" r="8.5"/><circle class="e" cx="8.5" cy="8.5" r="7.5"/></g></g><g transform="translate(198 176)"><line class="c" y2="5" transform="translate(2.5)"/><line class="c" y2="5" transform="translate(5 2.5) rotate(90)"/></g></g></svg>