<svg xmlns="http://www.w3.org/2000/svg" width="13.338" height="14.341" viewBox="0 0 13.338 14.341">
  <g id="icon-link-1" transform="translate(-95.852 -64.583)">
    <path id="Pfad_2149" data-name="Pfad 2149" d="M283.645,65.958a3.126,3.126,0,0,0-4.342-.838l-4.234,2.867a3.115,3.115,0,0,0,3.238,5.315l-.006-.013a.656.656,0,0,0,.092-.039.553.553,0,0,0-.569-.949h0l-.007-.012a1.937,1.937,0,0,1-2.671-.514,2.044,2.044,0,0,1,.547-2.839l4.148-2.807a2.044,2.044,0,0,1,2.839.547,1.847,1.847,0,0,1-.506,2.676l-.633.441a.567.567,0,0,0,.636.94c.005,0,.007-.009.012-.012l.621-.42A3.126,3.126,0,0,0,283.645,65.958Z" transform="translate(-174.992 0)" fill="#3e3e3e"/>
    <path id="Pfad_2150" data-name="Pfad 2150" d="M101.59,385.343l.007.013a.527.527,0,0,0-.092.041.553.553,0,1,0,.593.933v0l.008.01a1.937,1.937,0,0,1,2.683.449,2.044,2.044,0,0,1-.477,2.851l-4.079,2.909a2.046,2.046,0,0,1-2.851-.477,1.847,1.847,0,0,1,.44-2.687l.622-.457a.567.567,0,1,0-.659-.923c-.005,0-.007.009-.012.012l-.61.435a3.126,3.126,0,0,0,3.631,5.091l4.162-2.969a3.114,3.114,0,0,0-3.367-5.233Z" transform="translate(0 -315.203)" fill="#3e3e3e"/>
  </g>
</svg>
