<svg xmlns="http://www.w3.org/2000/svg" width="23.506" height="23.5" viewBox="0 0 23.506 23.5"><defs><style>.a{fill:#e6dcbf;stroke:#e6dcbf;stroke-width:0.5px;}</style></defs><path class="a" d="M101.583,3.05,87.711,16.922a.873.873,0,0,0-.228.4l-1.191,4.585a.875.875,0,0,0,1.066,1.067l4.585-1.191a.875.875,0,0,0,.4-.228L106.214,7.682h0l2.793-2.793a.874.874,0,0,0,0-1.237L105.614.256a.874.874,0,0,0-1.237,0l-2.792,2.792h0Zm-10.309,17.1L88.36,20.9l.757-2.915L102.2,4.9l2.158,2.158ZM105,2.112l2.158,2.158L105.6,5.826l-2.158-2.158Z" transform="translate(-86.008 0.25)"/></svg>