<svg width="29" height="29" viewBox="0 0 29 29" fill="none" xmlns="http://www.w3.org/2000/svg">
<g id="Wunschliste_bearbeiten">
<path id="Bearbeiten_Icon" d="M19.0001 4.25009L1.79008 21.4601C1.65008 21.6001 1.56008 21.7701 1.51008 21.9501L0.0300827 27.6401C-0.119917 28.2201 0.230085 28.8101 0.810085 28.9601C0.990085 29.0101 1.18008 29.0101 1.35008 28.9601L7.04008 27.4801C7.23008 27.4301 7.40008 27.3301 7.53008 27.2001L24.7401 9.99009L28.2001 6.52009C28.6201 6.10009 28.6201 5.41009 28.2001 4.99009L23.9901 0.780088C23.5701 0.360088 22.8801 0.360088 22.4601 0.780088L19.0001 4.24009V4.25009ZM6.21008 25.4701L2.59008 26.4101L3.53008 22.7901L19.7601 6.55009L22.4401 9.23009L6.21008 25.4701ZM23.2301 3.09009L25.9101 5.77009L23.9801 7.70009L21.3001 5.02009L23.2301 3.09009Z" fill="#C263E3"/>
</g>
</svg>
