<svg width="21" height="20" viewBox="0 0 21 20" fill="none" xmlns="http://www.w3.org/2000/svg">
<g id="Ebene_1" clip-path="url(#clip0_341_4665)">
<g id="Pfad_2097-2">
<path id="Pfad_2099" d="M16.7231 20.0001H4.27694C3.14547 20.0001 2.05172 19.556 1.25216 18.7506C0.445043 17.9451 0 16.8612 0 15.7321V11.3813C0 10.9673 0.33944 10.6286 0.75431 10.6286C1.16918 10.6286 1.50862 10.9673 1.50862 11.3813V15.7321C1.50862 16.4623 1.79526 17.1698 2.31573 17.6817C2.83621 18.2011 3.53772 18.4946 4.2694 18.4871H16.7231C18.2468 18.4871 19.4838 17.2526 19.4914 15.7246V11.3738C19.4914 10.9598 19.8308 10.6211 20.2457 10.6211C20.6606 10.6211 21 10.9598 21 11.3738V15.7246C21 18.0806 19.0841 19.985 16.7231 19.985V20.0001Z" fill="#C263E3"/>
</g>
<path id="Pfad_2100" d="M16.3384 4.73466L10.9903 0.180655C10.7112 -0.0602183 10.2888 -0.0602183 10.0097 0.180655L4.66166 4.73466C4.34485 5.00565 4.30713 5.47986 4.57868 5.79601C4.722 5.96161 4.93321 6.05947 5.15196 6.05947C5.33299 6.05947 5.50648 5.99172 5.64226 5.87881L9.74571 2.38615V14.061C9.74571 14.475 10.0851 14.8137 10.5 14.8137C10.9149 14.8137 11.2543 14.475 11.2543 14.061V2.38615L15.3578 5.87881C15.6746 6.14979 16.1498 6.11216 16.4214 5.79601C16.6929 5.47986 16.6552 5.00565 16.3384 4.73466Z" fill="#C263E3"/>
</g>
<defs>
<clipPath id="clip0_341_4665">
<rect width="21" height="20" fill="white"/>
</clipPath>
</defs>
</svg>
