<svg width="61" height="53" viewBox="0 0 61 53" fill="none" xmlns="http://www.w3.org/2000/svg">
<g id="Profil Wechseln &#226;&#128;&#162; Privat -&#62; Creator" clip-path="url(#clip0_319_1027)">
<path id="Vector" d="M60.3513 19.8359C59.6471 19.3272 58.6542 19.4798 58.1399 20.1763L56.6842 22.1485C55.1335 13.6844 49.611 6.42151 41.6003 2.64139C32.3277 -1.72963 21.4885 -0.618286 13.3077 5.54887C12.6115 6.07324 12.477 7.05544 13.0071 7.74416C13.5372 8.43288 14.5301 8.56202 15.2263 8.04156C22.4577 2.5866 32.0429 1.60048 40.2355 5.47061C47.3838 8.84376 52.2931 15.3514 53.6104 22.9312L51.2685 21.2407C50.5644 20.732 49.5715 20.8846 49.0572 21.5811C48.5429 22.2777 48.6972 23.2599 49.4014 23.7686L54.5203 27.4665C54.6073 27.5409 54.7023 27.6035 54.8051 27.6544C54.8407 27.6739 54.8724 27.6935 54.908 27.7092C54.9238 27.717 54.9357 27.7209 54.9515 27.7287C55.1493 27.8148 55.3629 27.8618 55.5844 27.8618C55.6675 27.8618 55.7466 27.854 55.8297 27.8422C56.2451 27.7796 56.6169 27.5526 56.8622 27.22L60.6954 22.0272C61.2097 21.3307 61.0554 20.3485 60.3513 19.8398V19.8359Z" fill="#FF704F"/>
<path id="Vector_2" d="M45.7737 44.9582C38.5423 50.4132 28.9571 51.3993 20.7645 47.5331C13.6162 44.1599 8.70293 37.6484 7.38957 30.0725L9.73146 31.763C10.4356 32.2717 11.4285 32.1191 11.9428 31.4226C12.4571 30.726 12.3028 29.7438 11.5986 29.2351L6.47971 25.5372C6.36894 25.4472 6.25027 25.365 6.11577 25.3063C5.43931 24.9737 4.60066 25.1576 4.13782 25.7837L0.304549 30.9765C-0.209718 31.673 -0.0554383 32.6552 0.648712 33.1639C0.929581 33.3674 1.25792 33.4652 1.5823 33.4652C2.06888 33.4652 2.5515 33.2422 2.86006 32.8235L4.31583 30.8512C5.86655 39.3154 11.389 46.5783 19.3997 50.3584C23.1538 52.1311 27.1651 52.9998 31.1527 52.9998C37.0114 52.9998 42.8226 51.1176 47.6883 47.4509C48.3846 46.9266 48.5191 45.9443 47.989 45.2556C47.4589 44.5669 46.466 44.4339 45.7697 44.9582H45.7737Z" fill="#DE92F9"/>
</g>
<defs>
<clipPath id="clip0_319_1027">
<rect width="61" height="53" fill="white"/>
</clipPath>
</defs>
</svg>
