<?xml version="1.0" encoding="utf-8"?>
<!-- Generator: Adobe Illustrator 24.2.2, SVG Export Plug-In . SVG Version: 6.00 Build 0)  -->
<svg version="1.1" id="Ebene_1" xmlns="http://www.w3.org/2000/svg" xmlns:xlink="http://www.w3.org/1999/xlink" x="0px" y="0px"
	 width="50.857" height="27.66" viewBox="0 0 50.857 27.66" style="enable-background:new 0 0 41.4 31;" xml:space="preserve">
<path class="st0" d="M40.4,13.2l-19-13c-0.4-0.3-1-0.3-1.4,0l-19,13c-0.6,0.4-0.7,1.2-0.3,1.7c0.4,0.6,1.2,0.7,1.7,0.3l4.3-3v13
	c0,3.1,2.5,5.7,5.7,5.7H29c3.1,0,5.7-2.5,5.7-5.7v-13l4.3,3c0.2,0.1,0.5,0.2,0.7,0.2c0.4,0,0.8-0.2,1-0.5
	C41.1,14.4,41,13.6,40.4,13.2z M32.5,25.3c0,1.9-1.6,3.5-3.5,3.5H12.5c-1.9,0-3.5-1.6-3.5-3.5V10.8l11.7-8l11.7,8V25.3z"/>
</svg>
