<svg width="27" height="25" viewBox="0 0 27 25" fill="none" xmlns="http://www.w3.org/2000/svg">
<path id="Vector" d="M21.1697 17.6311C22.2455 15.8689 22.8765 13.7951 22.8765 11.582C22.8765 5.19672 17.7479 0 11.4382 0C5.1286 0 0 5.19672 0 11.582C0 17.9672 5.1286 23.1721 11.4382 23.1721C14.8196 23.1721 17.853 21.6721 19.9482 19.2951L25.279 24.6967C25.4732 24.8934 25.732 25 25.9909 25C26.2497 25 26.5086 24.9016 26.7027 24.6967C27.0991 24.2951 27.0991 23.6475 26.7027 23.2459L21.1616 17.6311H21.1697ZM2.02232 11.582C2.02232 6.31967 6.24492 2.04918 11.4382 2.04918C16.6316 2.04918 20.8542 6.32787 20.8542 11.582C20.8542 14.2541 19.7621 16.6721 18.0067 18.4016C17.5861 15.9344 16.2109 13.8852 14.3827 12.8033C15.1593 12.0328 15.6366 10.959 15.6366 9.77869C15.6366 7.43443 13.7518 5.53279 11.4463 5.53279C9.14089 5.53279 7.25609 7.44262 7.25609 9.77869C7.25609 10.959 7.74145 12.0328 8.50993 12.8033C6.67366 13.8852 5.30657 15.9344 4.88593 18.4016C3.13055 16.6721 2.0385 14.2541 2.0385 11.582H2.02232ZM9.26223 9.77869C9.26223 8.56557 10.2329 7.58197 11.4302 7.58197C12.6274 7.58197 13.5981 8.56557 13.5981 9.77869C13.5981 10.9918 12.6274 11.9754 11.4302 11.9754C10.2329 11.9754 9.26223 10.9918 9.26223 9.77869ZM6.76264 19.8525C6.83544 16.6229 8.89821 14.0328 11.4382 14.0328C13.9783 14.0328 16.041 16.6311 16.1139 19.8525C14.7387 20.6557 13.1451 21.1229 11.4382 21.1229C9.73141 21.1229 8.14591 20.6557 6.76264 19.8525Z" stroke="#fff" fill="#FF704F"/>
</svg>
