<?xml version="1.0" encoding="utf-8"?>
<!-- Generator: Adobe Illustrator 24.2.2, SVG Export Plug-In . SVG Version: 6.00 Build 0)  -->
<svg version="1.1" id="Ebene_1" xmlns="http://www.w3.org/2000/svg" xmlns:xlink="http://www.w3.org/1999/xlink" x="0px" y="0px"
	 width="50.857" height="27.66" viewBox="0 0 50.857 27.66" style="enable-background:new 0 0 29.3 25.5;" xml:space="preserve">
<g id="Linie_2">
	<path class="st0" d="M28,14.5H1.2c-0.7,0-1.2-0.6-1.2-1.2S0.6,12,1.2,12H28c0.7,0,1.2,0.6,1.2,1.2S28.7,14.5,28,14.5z"/>
</g>
<g id="Linie_2_1_">
	<path class="st0" d="M28,2.5H1.2C0.6,2.5,0,1.9,0,1.2S0.6,0,1.2,0H28c0.7,0,1.2,0.6,1.2,1.2S28.7,2.5,28,2.5z"/>
</g>
<g id="Linie_3">
	<path class="st0" d="M28,25.5H11.8c-0.7,0-1.2-0.6-1.2-1.2s0.6-1.2,1.2-1.2H28c0.7,0,1.2,0.6,1.2,1.2S28.7,25.5,28,25.5z"/>
</g>
</svg>
