<svg xmlns="http://www.w3.org/2000/svg" width="32" height="25" viewBox="0 0 32 25">
  <path d="M16.5745 0.176844C16.229 -0.0589479 15.779 -0.0589479 15.4416 0.176844L0.439746 10.5517C-0.0182633 10.8688 -0.138792 11.503 0.174583 11.9664C0.487957 12.4299 1.11471 12.5518 1.57272 12.2347L4.78681 10.015V20.2516C4.78681 22.8697 6.89205 25 9.4794 25H22.5286C25.116 25 27.2212 22.8697 27.2212 20.2516V10.015L30.4353 12.2347C30.6121 12.3567 30.8049 12.4136 30.9978 12.4136C31.3192 12.4136 31.6326 12.2591 31.8254 11.9746C32.1388 11.5111 32.0183 10.8769 31.5603 10.5598L16.5745 0.176844ZM25.0758 20.2435C25.0758 21.6583 23.9348 22.8128 22.5367 22.8128H9.4794C8.08127 22.8128 6.94026 21.6583 6.94026 20.2435V8.51898L16.004 2.25018L25.0678 8.52712V20.2516L25.0758 20.2435Z"/>
</svg>