<svg xmlns="http://www.w3.org/2000/svg" width="50.857" height="27.66" viewBox="0 0 50.857 27.66">
  <defs>
    <style>
      .cls-1 {
        stroke: #fff;
        stroke-width: 0.2px;
      }
    </style>
  </defs>
  <g id="Freunde_Wunschlisten" data-name="Freunde Wunschlisten" transform="translate(0.105 0.1)">
    <path id="Vereinigungsmenge_1" data-name="Vereinigungsmenge 1" class="cls-1" d="M703.683,126.46h-.124a2.9,2.9,0,0,1-2.222-1.042,2.936,2.936,0,0,1-.642-2.406,13.284,13.284,0,0,1,.41-1.674H690.5a2.494,2.494,0,0,1-1.913-.9,2.525,2.525,0,0,1-.552-2.067,10.276,10.276,0,0,1,6.063-7.687,6.3,6.3,0,0,1-2.248-4.839,6.161,6.161,0,1,1,12.32,0,6.3,6.3,0,0,1-2.251,4.842,10.027,10.027,0,0,1,1.483.783,10.277,10.277,0,0,1,2.964,2.9,12.654,12.654,0,0,1,2.483-1.256,7.814,7.814,0,0,1-3.225-6.344A7.713,7.713,0,0,1,713.262,99h.123a7.713,7.713,0,0,1,7.633,7.774,7.816,7.816,0,0,1-3.225,6.344,12.654,12.654,0,0,1,2.483,1.256,10.277,10.277,0,0,1,2.964-2.9,10.073,10.073,0,0,1,1.483-.783,6.3,6.3,0,0,1-2.251-4.842,6.161,6.161,0,1,1,12.32,0,6.3,6.3,0,0,1-2.248,4.839,10.277,10.277,0,0,1,6.064,7.687,2.526,2.526,0,0,1-.553,2.067,2.491,2.491,0,0,1-1.913.9h-10.6a13.284,13.284,0,0,1,.41,1.674,2.943,2.943,0,0,1-.642,2.406,2.9,2.9,0,0,1-2.223,1.042Zm19.281-2.227a.671.671,0,0,0,.516-.246.712.712,0,0,0,.157-.587,10.433,10.433,0,0,0-20.625,0,.712.712,0,0,0,.157.587.671.671,0,0,0,.516.246Zm13.18-5.122a.271.271,0,0,0,.206-.1.3.3,0,0,0,.067-.248,7.959,7.959,0,0,0-7.783-6.646,7.826,7.826,0,0,0-6.6,3.635,12.96,12.96,0,0,1,2.575,3.359Zm-45.912-.348a.3.3,0,0,0,.066.248.274.274,0,0,0,.207.1h11.536a12.96,12.96,0,0,1,2.575-3.359,7.825,7.825,0,0,0-6.6-3.635A7.958,7.958,0,0,0,690.232,118.763Zm17.747-11.989a5.348,5.348,0,1,0,5.345-5.547A5.487,5.487,0,0,0,707.979,106.774Zm16.72-.926a3.935,3.935,0,1,0,3.934-4.043A3.995,3.995,0,0,0,724.7,105.848Zm-30.618,0a3.935,3.935,0,1,0,3.934-4.043A3.995,3.995,0,0,0,694.081,105.848Z" transform="translate(-688 -99)"/>
  </g>
</svg>
