<svg xmlns="http://www.w3.org/2000/svg" width="41" height="25" viewBox="0 0 41 25" >
  <path d="M36.3274 9.58938C37.3321 8.69063 37.9693 7.38786 37.9693 5.93668C37.9693 3.24044 35.7964 1.04716 33.1251 1.04716C30.4539 1.04716 28.2809 3.24044 28.2809 5.93668C28.2809 7.38786 28.9181 8.69063 29.9147 9.58113C28.5015 10.3397 27.3007 11.5848 26.4674 13.1844C25.7812 12.6237 25.0297 12.1702 24.2455 11.8156C25.8793 10.6283 26.9494 8.69888 26.9494 6.5221C26.9494 2.92711 24.0494 0 20.4877 0C16.9261 0 14.0261 2.92711 14.0261 6.5221C14.0261 8.69888 15.0962 10.6283 16.73 11.8156C15.9458 12.1702 15.1943 12.6237 14.5081 13.1844C13.6748 11.5765 12.4658 10.3315 11.0608 9.58113C12.0574 8.68239 12.6946 7.38786 12.6946 5.93668C12.6946 3.24044 10.5216 1.04716 7.85037 1.04716C5.17912 1.04716 3.00618 3.24044 3.00618 5.93668C3.00618 7.38786 3.64336 8.69063 4.64814 9.58938C1.91154 11.0653 0 14.3635 0 18.1893C0 18.7582 0.457462 19.22 1.02112 19.22H10.5053C10.0233 20.6959 9.75374 22.2955 9.75374 23.9693C9.75374 24.5383 10.2112 25 10.7749 25H30.2251C30.7888 25 31.2463 24.5383 31.2463 23.9693C31.2463 22.2955 30.9767 20.6959 30.4947 19.22H39.9789C40.5425 19.22 41 18.7582 41 18.1893C41 14.3635 39.0885 11.0653 36.3519 9.58938H36.3274ZM30.3232 5.93668C30.3232 4.3783 31.5812 3.10851 33.1251 3.10851C34.6691 3.10851 35.9271 4.3783 35.9271 5.93668C35.9271 7.49505 34.6691 8.76484 33.1251 8.76484C31.5812 8.76484 30.3232 7.49505 30.3232 5.93668ZM16.0684 6.53034C16.0684 4.07322 18.0452 2.06959 20.4877 2.06959C22.9303 2.06959 24.9072 4.06497 24.9072 6.53034C24.9072 8.99571 22.9221 10.9911 20.4877 10.9911C18.0534 10.9911 16.0684 8.98747 16.0684 6.53034ZM5.04842 5.93668C5.04842 4.3783 6.30644 3.10851 7.85037 3.10851C9.3943 3.10851 10.6523 4.3783 10.6523 5.93668C10.6523 7.49505 9.3943 8.76484 7.85037 8.76484C6.30644 8.76484 5.04842 7.49505 5.04842 5.93668ZM2.09126 17.1586C2.49154 13.5801 4.91771 10.8179 7.85037 10.8179C9.99881 10.8179 11.9512 12.3351 12.956 14.718C12.3433 15.4436 11.8123 16.2681 11.3549 17.1586H2.09126ZM11.8205 22.9387C12.2371 17.3978 15.9621 13.0442 20.4877 13.0442C25.0133 13.0442 28.7384 17.3978 29.155 22.9387H11.8205ZM29.6206 17.1586C29.1632 16.2681 28.6322 15.4518 28.0195 14.7263C29.0325 12.3433 30.9767 10.8262 33.1251 10.8262C36.0578 10.8262 38.484 13.5884 38.8842 17.1669H29.6206V17.1586Z"/>
</svg>