<svg xmlns="http://www.w3.org/2000/svg" xmlns:xlink="http://www.w3.org/1999/xlink" width="48" height="48" viewBox="0 0 48 48"><defs><style>.a{fill:#fff;}.b{clip-path:url(#a);}.c{fill:url(#b);}</style><clipPath id="a"><circle class="a" cx="24" cy="24" r="24" transform="translate(163 39)"/></clipPath><linearGradient id="b" x1="0.102" y1="0.024" x2="0.828" y2="0.895" gradientUnits="objectBoundingBox"><stop offset="0" stop-color="#ffa571"/><stop offset="1" stop-color="#ff704f"/></linearGradient></defs><g class="b" transform="translate(-163 -39)"><path class="c" d="M-56.578,1559.266s18.459,7.834,25.315,8.692,12.69,1.29,28.637-8.692,27-8.644,27-8.644l-.8-34.683-78.931-.669Z" transform="translate(214.078 -1477.955)"/></g><g transform="translate(7.184 15.85)"><path class="a" d="M199.359,150.609v-.753h10.772v.753h-1.712l3.759,14.069,3.716-14.069H213.01v-.753h5.638v.753h-1.756l-5.007,19.12h-5.719l-3.632-12.819-3.925,12.819h-5.594l-6.178-19.12h-1.878v-.753h12.651v.753H195.1l3.841,14.195,3-9.769-1.044-4.425Z" transform="translate(-184.958 -149.856)"/></g></svg>