<svg xmlns="http://www.w3.org/2000/svg" width="48.102" height="48.104" viewBox="0 0 48.102 48.104"><defs><style>.a{fill:#ffd1b6;}.b{fill:#fff;}</style></defs><g transform="translate(-182.315 -144.025)"><g transform="translate(182.315 144.025)"><path class="a" d="M206.366,192.129a24.052,24.052,0,1,0-24.051-24.051,24.051,24.051,0,0,0,24.051,24.051" transform="translate(-182.315 -144.025)"/></g><g transform="translate(189.499 159.875)"><path class="b" d="M199.359,150.609v-.753h10.772v.753h-1.712l3.759,14.069,3.716-14.069H213.01v-.753h5.638v.753h-1.756l-5.007,19.12h-5.719l-3.632-12.819-3.925,12.819h-5.594l-6.178-19.12h-1.878v-.753h12.651v.753H195.1l3.841,14.195,3-9.769-1.044-4.425Z" transform="translate(-184.958 -149.856)"/></g></g></svg>