<svg xmlns="http://www.w3.org/2000/svg" width="299.126" height="272.534" viewBox="0 0 299.126 272.534"><defs><style>.a{fill:#fce0cb;}.b{fill:#ff704f;}</style></defs><g transform="translate(-158.224 -120.956)"><g transform="translate(171.52 120.956)"><path class="a" d="M297.621,393.49A136.267,136.267,0,1,0,161.356,257.225,136.266,136.266,0,0,0,297.621,393.49" transform="translate(-161.356 -120.956)"/></g><g transform="translate(158.224 222.872)"><path class="b" d="M189.762,152.2v-1.668h23.582V152.2H209.6l8.227,31.245,8.134-31.245h-6.308v-1.668h12.341V152.2h-3.838l-10.97,42.466H204.663l-7.951-28.46-8.6,28.46H175.867L162.338,152.2h-4.114v-1.668h27.7V152.2H180.44l8.41,31.525,6.58-21.693-2.284-9.832Z" transform="translate(-158.224 -126.887)"/><path class="b" d="M197.224,173.586h2.653v-7.136q0-8.807-.959-11.823t-3.706-3.01a5.211,5.211,0,0,0-2.967.883,2.745,2.745,0,0,0-1.329,2.407,9.326,9.326,0,0,0,.552,3.108h2.284a13.329,13.329,0,0,1,.734,4.678,6.079,6.079,0,0,1-2.288,4.729,8.435,8.435,0,0,1-5.757,1.991q-7.864,0-7.862-7.7,0-11.4,19.108-11.4,10.876,0,15.041,3.757t4.16,13.763v18.824q0,4.821,2.653,4.823,3.1,0,3.655-9.552l1.367.1q-.363,8.151-3.018,11.212T212.86,196.3q-10.972,0-12.613-6.86a10.04,10.04,0,0,1-3.562,5.192q-2.382,1.662-6.949,1.668-13.532,0-13.53-11.22,0-6.584,5.162-9.038T197.224,173.586Zm-3.154,17.622a1.893,1.893,0,0,0,1.919,1.388c.942,0,1.83-.785,2.653-2.36a14.281,14.281,0,0,0,1.235-6.533V175.08h-.641q-5.667,0-5.667,8.435V185A23.065,23.065,0,0,0,194.07,191.208Z" transform="translate(-99.868 -127.601)"/><path class="b" d="M188.478,151.244h22.033v8.524a15.5,15.5,0,0,1,4.479-6.86q3.018-2.592,9.144-2.594,14.169,0,14.171,15.482V193.7h5.12v1.668H217.554V193.7H221.3V163.568q0-5.559-.734-7.183a2.665,2.665,0,0,0-2.653-1.622q-2.923,0-5.162,3.893a18.658,18.658,0,0,0-2.237,9.454v25.595h3.927v1.668h-25.96v-1.668h5.031v-40.8h-5.031v-1.664Z" transform="translate(-60.042 -127.598)"/><path class="b" d="M207.141,193.809V164.6H202.11v-1.668h5.031V150.974l17.007-4.262v16.221H236.03V164.6H224.147v31.245a17.49,17.49,0,0,0,.862,6.4q.872,2.038,3.617,2.038a5.925,5.925,0,0,0,4.8-2.776,16.241,16.241,0,0,0,2.691-7.608l1.554.187a18.164,18.164,0,0,1-4.016,10.151q-3.292,3.757-10.885,3.757t-11.607-3.065Q207.136,201.877,207.141,193.809Z" transform="translate(-15.802 -139.287)"/><path class="b" d="M211.261,168.609h22.4v42.465h5.12v1.668H211.635v-1.668h5.022v-40.8h-5.4v-1.668Zm13.81-6.4q-4.846,0-6.9-2.5a9.475,9.475,0,0,1-2.055-6.211,8.618,8.618,0,0,1,2.237-6.117c1.486-1.609,3.766-2.416,6.809-2.416s5.366.73,6.949,2.182a8.021,8.021,0,0,1,2.382,6.219,8.971,8.971,0,0,1-2.292,6.444Q229.919,162.209,225.071,162.212Z" transform="translate(13.895 -144.963)"/><path class="b" d="M244.065,151.986q-4.018,0-5.757,4.453t-1.732,14.744v4.823q0,9.176,2.008,13.165t7.4,3.982a10.76,10.76,0,0,0,8.592-3.706A17.946,17.946,0,0,0,258.694,181l1.651.187q-1.738,7.979-6.406,11.5-4.757,3.611-13.071,3.613-10.6,0-16.272-5.795t-5.668-16.968q0-11.169,6.444-17.2t17.966-6.028q8.138,0,12.43,3.2a9.655,9.655,0,0,1,4.3,8.019q0,4.821-2.059,7.047a7.351,7.351,0,0,1-5.667,2.225,8.425,8.425,0,0,1-5.8-1.949,7.278,7.278,0,0,1-2.195-5.748,12.246,12.246,0,0,1,.463-3.341h3.014a10.385,10.385,0,0,0,.641-3.337Q248.451,151.992,244.065,151.986Z" transform="translate(38.78 -127.601)"/></g></g></svg>