<svg xmlns="http://www.w3.org/2000/svg" width="40" height="40.002" viewBox="0 0 40 40.002"><defs><style>.a{fill:#fce0cb;}.b{fill:#ff704f;}</style></defs><g transform="translate(-182.315 -144.025)"><g transform="translate(182.315 144.025)"><path class="a" d="M202.315,184.027a20,20,0,1,0-20-20,20,20,0,0,0,20,20" transform="translate(-182.315 -144.025)"/></g><g transform="translate(188.364 157.089)"><path class="b" d="M197.084,150.49v-.634h9.071v.634h-1.442l3.165,11.847,3.129-11.847h-2.428v-.634h4.747v.634h-1.479l-4.216,16.1h-4.816L199.757,155.8l-3.305,10.794h-4.71l-5.2-16.1h-1.582v-.634H195.61v.634H193.5l3.234,11.952,2.529-8.226-.879-3.726Z" transform="translate(-184.958 -149.856)"/></g></g></svg>