<svg xmlns="http://www.w3.org/2000/svg" width="130" height="48" viewBox="0 0 130 48"><defs><style>.a{fill:#a0a0a0;}.b{fill:#3e3e3e;}</style></defs><rect class="a" width="130" height="48" rx="24"/><path class="b" d="M-39.481-1.177h3.11V0h-4.575V-7.109h1.465Zm9.228-1.9h-2.812v1.9h3.3V0h-4.766V-7.109h4.756v1.187h-3.291v1.694h2.813ZM-26.349,0h-1.465V-7.109h1.465Zm2.357,0V-7.109H-21.8a3.322,3.322,0,0,1,1.677.422,2.945,2.945,0,0,1,1.155,1.2,3.7,3.7,0,0,1,.415,1.77v.327a3.715,3.715,0,0,1-.408,1.763,2.92,2.92,0,0,1-1.15,1.2A3.347,3.347,0,0,1-21.789,0Zm1.465-5.923v4.746h.708A1.591,1.591,0,0,0-20.5-1.738a2.537,2.537,0,0,0,.464-1.606v-.376a2.578,2.578,0,0,0-.449-1.643A1.585,1.585,0,0,0-21.8-5.923Zm10.312,2.842h-2.812v1.9h3.3V0h-4.766V-7.109h4.756v1.187h-3.291v1.694h2.813Zm4.979.479H-8.4V0H-9.867V-7.109h2.642a2.986,2.986,0,0,1,1.943.562A1.938,1.938,0,0,1-4.6-4.961a2.187,2.187,0,0,1-.315,1.213,2.148,2.148,0,0,1-.955.774L-4.33-.068V0H-5.9ZM-8.4-3.789h1.182a1.21,1.21,0,0,0,.854-.281,1,1,0,0,0,.3-.774,1.074,1.074,0,0,0-.286-.791,1.187,1.187,0,0,0-.876-.288H-8.4ZM4.691-1.865A.752.752,0,0,0,4.4-2.5a3.843,3.843,0,0,0-1.055-.469,7.477,7.477,0,0,1-1.206-.486A1.971,1.971,0,0,1,.927-5.22a1.717,1.717,0,0,1,.325-1.028,2.118,2.118,0,0,1,.933-.706,3.51,3.51,0,0,1,1.365-.254,3.2,3.2,0,0,1,1.357.276,2.161,2.161,0,0,1,.925.779,2.038,2.038,0,0,1,.33,1.143H4.7a.959.959,0,0,0-.308-.759,1.265,1.265,0,0,0-.864-.271,1.351,1.351,0,0,0-.835.227.716.716,0,0,0-.3.6.686.686,0,0,0,.349.581,3.944,3.944,0,0,0,1.028.439,4.441,4.441,0,0,1,1.821.933,1.857,1.857,0,0,1,.571,1.387,1.711,1.711,0,0,1-.7,1.448A3.057,3.057,0,0,1,3.583.1,3.63,3.63,0,0,1,2.089-.2a2.364,2.364,0,0,1-1.028-.823A2.107,2.107,0,0,1,.707-2.236h1.47q0,1.177,1.406,1.177A1.368,1.368,0,0,0,4.4-1.272.691.691,0,0,0,4.691-1.865Zm9.042-.5a2.516,2.516,0,0,1-.847,1.807A2.975,2.975,0,0,1,10.872.1a2.675,2.675,0,0,1-2.151-.92A3.774,3.774,0,0,1,7.938-3.35v-.435A4.262,4.262,0,0,1,8.3-5.591a2.708,2.708,0,0,1,1.033-1.2,2.893,2.893,0,0,1,1.56-.417,2.9,2.9,0,0,1,1.982.659A2.7,2.7,0,0,1,13.743-4.7H12.278a1.485,1.485,0,0,0-.383-1,1.419,1.419,0,0,0-1-.31,1.245,1.245,0,0,0-1.1.525,2.942,2.942,0,0,0-.374,1.628v.537a3.148,3.148,0,0,0,.349,1.685,1.222,1.222,0,0,0,1.1.532,1.446,1.446,0,0,0,1.013-.31,1.4,1.4,0,0,0,.383-.959ZM21.481,0H20.017V-3.047H17.16V0H15.7V-7.109H17.16v2.881h2.856V-7.109h1.465ZM29.6-3.394a4.292,4.292,0,0,1-.371,1.841A2.8,2.8,0,0,1,28.167-.332,2.938,2.938,0,0,1,26.583.1a2.958,2.958,0,0,1-1.577-.425,2.822,2.822,0,0,1-1.074-1.213,4.169,4.169,0,0,1-.386-1.814v-.352a4.269,4.269,0,0,1,.378-1.848A2.818,2.818,0,0,1,24.994-6.78a2.941,2.941,0,0,1,1.58-.427,2.941,2.941,0,0,1,1.58.427,2.818,2.818,0,0,1,1.069,1.226A4.257,4.257,0,0,1,29.6-3.711Zm-1.484-.322a2.992,2.992,0,0,0-.4-1.7A1.3,1.3,0,0,0,26.573-6a1.305,1.305,0,0,0-1.138.574A2.958,2.958,0,0,0,25.03-3.74v.347a3.029,3.029,0,0,0,.4,1.689,1.3,1.3,0,0,0,1.152.6,1.29,1.29,0,0,0,1.133-.579,3.012,3.012,0,0,0,.4-1.687ZM37.446,0H35.981L33.13-4.678V0H31.665V-7.109H33.13l2.856,4.688V-7.109h1.46ZM-30.386,12.237l1.611-5.347h1.631L-29.62,14h-1.528l-2.466-7.109h1.626Zm9.188-1.318H-24.01v1.9h3.3V14h-4.766V6.891h4.756V8.077H-24.01V9.771H-21.2Zm4.979.479h-1.167V14H-18.85V6.891h2.642a2.986,2.986,0,0,1,1.943.562,1.938,1.938,0,0,1,.684,1.587,2.187,2.187,0,0,1-.315,1.213,2.148,2.148,0,0,1-.955.774l1.538,2.905V14h-1.572Zm-1.167-1.187H-16.2a1.21,1.21,0,0,0,.854-.281,1,1,0,0,0,.3-.774,1.074,1.074,0,0,0-.286-.791,1.187,1.187,0,0,0-.876-.288h-1.177ZM-5.843,13.1a2.543,2.543,0,0,1-1.118.735,4.683,4.683,0,0,1-1.6.261,3.173,3.173,0,0,1-1.619-.4,2.687,2.687,0,0,1-1.074-1.169,4.116,4.116,0,0,1-.388-1.8V10.24A4.371,4.371,0,0,1-11.285,8.4,2.655,2.655,0,0,1-10.25,7.206a2.982,2.982,0,0,1,1.584-.413,2.969,2.969,0,0,1,1.978.6,2.577,2.577,0,0,1,.845,1.755H-7.269A1.418,1.418,0,0,0-7.7,8.258a1.38,1.38,0,0,0-.92-.283,1.3,1.3,0,0,0-1.138.562,2.953,2.953,0,0,0-.4,1.67v.454A2.811,2.811,0,0,0-9.73,12.35a1.455,1.455,0,0,0,1.245.571,1.625,1.625,0,0,0,1.177-.352V11.344H-8.641V10.265h2.8Zm4.818-1.7H-2.192V14H-3.657V6.891h2.642a2.986,2.986,0,0,1,1.943.562,1.938,1.938,0,0,1,.684,1.587A2.187,2.187,0,0,1,1.3,10.252a2.148,2.148,0,0,1-.955.774L1.88,13.932V14H.308Zm-1.167-1.187H-1.01A1.21,1.21,0,0,0-.156,9.93a1,1,0,0,0,.3-.774,1.074,1.074,0,0,0-.286-.791,1.187,1.187,0,0,0-.876-.288H-2.192ZM5.283,14H3.818V6.891H5.283Zm6.635-2.905H9.1V14H7.64V6.891h4.629V8.077H9.1V9.913h2.813Zm6.479,0H15.583V14H14.119V6.891h4.629V8.077H15.583V9.913H18.4Zm6.479-.176H22.062v1.9h3.3V14H20.6V6.891h4.756V8.077H22.062V9.771h2.813ZM33,14H31.539L28.687,9.322V14H27.222V6.891h1.465l2.856,4.688V6.891H33Z" transform="translate(65 22)"/></svg>