<svg id="Komponente_86_1" data-name="Komponente 86 – 1" xmlns="http://www.w3.org/2000/svg" width="35" height="39.471" viewBox="0 0 35 39.471">
  <path id="Pfad_2147" data-name="Pfad 2147" d="M819.4,189.374a4.369,4.369,0,0,1-1.36,2.942c-1.508,1.48-3.032,2.943-4.558,4.4a1.161,1.161,0,0,1-1.847-.008c-1.512-1.448-3.037-2.884-4.518-4.362a4.507,4.507,0,0,1-1.212-4.671,4.041,4.041,0,0,1,6.182-2.4.759.759,0,0,0,.945,0,4.025,4.025,0,0,1,4.23-.168A4.627,4.627,0,0,1,819.4,189.374Zm-6.844,5.065c1.343-1.3,2.636-2.506,3.876-3.768a2.779,2.779,0,0,0,.627-1.187,2.247,2.247,0,0,0-.883-2.366,1.989,1.989,0,0,0-2.359.406c-.043.037-.084.078-.127.115a1.46,1.46,0,0,1-2.27,0c-.1-.087-.2-.179-.3-.261a1.822,1.822,0,0,0-3.066,1.1,2.089,2.089,0,0,0,.479,2.026C809.828,191.829,811.186,193.106,812.555,194.439Z" transform="translate(-794.869 -162.99)" fill="#3e3e3e"/>
  <path id="Pfad_2148" data-name="Pfad 2148" d="M769.818,57.052a3.681,3.681,0,0,0-3.708-4.019H760.9a1.608,1.608,0,0,1-.234.01l-.471-.01H757.16c2.015-.6,5.23-2.143,6.007-4.613a3.562,3.562,0,0,0-.822-3.514,4.076,4.076,0,0,0-3.394-1.721,4.969,4.969,0,0,0-3.531,2.54c-.759,1.21-2.143,3.983-3.1,5.946-.957-1.964-2.341-4.736-3.1-5.946a4.969,4.969,0,0,0-3.531-2.54,4.069,4.069,0,0,0-3.394,1.721,3.561,3.561,0,0,0-.822,3.514c.777,2.47,3.992,4.012,6.007,4.613h-9.06a3.6,3.6,0,0,0-3.512,3.13,10.711,10.711,0,0,0,.015,2.841,3.366,3.366,0,0,0,2.424,2.836c.458.155.544.376.543.81q-.021,7.944-.006,15.887a3.888,3.888,0,0,0,4.077,4.105q10.372.012,20.745-.005a4.7,4.7,0,0,0,1.347-.19,3.916,3.916,0,0,0,2.74-3.974q.01-7.887-.008-15.773c0-.482.093-.719.6-.885a3.572,3.572,0,0,0,2.429-3.335C769.825,58.005,769.818,57.529,769.818,57.052ZM757.361,46.944c.428-.682,1.113-1.427,1.754-1.473l.059,0a2.217,2.217,0,0,1,1.423.92,1.308,1.308,0,0,1,.384,1.344c-.326,1.035-2.19,2.508-4.747,3.181-.42.111-.808.232-1.166.36C755.893,49.613,756.819,47.808,757.361,46.944Zm-13.7.789a1.308,1.308,0,0,1,.384-1.344,2.217,2.217,0,0,1,1.423-.92l.059,0c.641.046,1.326.791,1.754,1.473.542.864,1.467,2.669,2.292,4.331-.357-.128-.745-.25-1.166-.36C745.849,50.241,743.984,48.768,743.659,47.733Zm20.85,15.016q0,7.746,0,15.493c0,1.566-.56,2.119-2.142,2.119H742.243c-1.511,0-2.077-.559-2.077-2.053q0-7.775,0-15.55v-.7c.482,0,.934,0,1.382,0v0h11.176v0h11.786Zm3.023-4.56a1.427,1.427,0,0,1-1.594,1.584q-4.516.007-9.032,0c-1.394,0-2.789-.015-4.182.011v-.011H741.547v0c-.93-.01-1.86,0-2.79,0a1.469,1.469,0,0,1-1.647-1.658c0-.362,0-.724,0-1.086.006-1.175.542-1.717,1.706-1.718q3.973,0,7.946,0h18.98c1.309,0,1.787.48,1.79,1.793C767.533,57.466,767.537,57.828,767.531,58.19Z" transform="translate(-734.82 -43.177)" fill="#3e3e3e"/>
</svg>
